<?xml version="1.0" encoding="UTF-8"?><svg id="Layer_1" xmlns="http://www.w3.org/2000/svg" width="1024" height="1024" viewBox="0 0 1024 1024"><path d="M103.76,640.87c0-85.63,16.77-168.7,49.85-246.91,31.95-75.54,77.69-143.37,135.94-201.63,58.25-58.25,126.09-103.99,201.63-135.94,78.21-33.08,161.28-49.85,246.91-49.85,46.61,0,92.46,4.98,137.18,14.85-30.96-13.74-65.22-21.38-101.28-21.38H250C111.93,0,0,111.93,0,250v524c0,132,102.3,240.09,231.95,249.35-31.58-41.68-57.81-87.03-78.33-135.56-33.08-78.21-49.85-161.28-49.85-246.91Z" fill="#191919"/><path d="M876.04,1002.29c-210.63-63.48-364.04-258.96-364.04-490.29,0-217.28,135.35-402.94,326.33-477.29-32.63-5.38-66.11-8.18-100.24-8.18C399.35,26.54,123.76,302.12,123.76,640.87c0,144.78,50.35,278.01,134.44,383.13h515.8c36.35,0,70.88-7.77,102.04-21.71Z" fill="#191919"/><path d="M512,512c0,231.32,153.41,426.81,364.04,490.29,87.2-39.04,147.96-126.56,147.96-228.29V250c0-76.61-34.47-145.15-88.73-191.01-31.27-10.62-63.66-18.79-96.94-24.28-190.98,74.35-326.33,260.01-326.33,477.29Z" fill="#f1f1f2"/><path d="M876.35,21.62c-.36-.08-.72-.16-1.07-.24.25.11.51.22.76.33.1-.03.21-.06.31-.09Z" fill="#f1f1f2"/><path d="M258.2,1024c-84.1-105.12-134.44-238.35-134.44-383.13C123.76,302.12,399.35,26.54,738.09,26.54c34.13,0,67.61,2.8,100.24,8.18,12.34-4.81,24.92-9.15,37.71-13-.25-.11-.51-.22-.76-.33-44.72-9.86-90.57-14.85-137.18-14.85-85.63,0-168.7,16.77-246.91,49.85-75.54,31.95-143.37,77.69-201.63,135.94-58.25,58.25-103.99,126.09-135.94,201.63-33.08,78.21-49.85,161.28-49.85,246.91s16.77,168.7,49.85,246.91c20.53,48.54,46.76,93.89,78.33,135.56,5.96.43,11.98.65,18.05.65h8.2Z" fill="#f1f1f2"/><path d="M935.27,58.99c-17.79-15.04-37.7-27.64-59.24-37.28-12.79,3.85-25.36,8.19-37.71,13,33.28,5.49,65.68,13.65,96.94,24.28Z" fill="#f1f1f2"/></svg>